HIERARCHY
ROOT Hips
{
	OFFSET 0.0000 0.0000 0.0000
	CHANNELS 6 Xposition Yposition Zposition Zrotation Xrotation Yrotation
	JOINT Ab
	{
		OFFSET -0.0000 8.0846 -0.0000
		CHANNELS 3 Zrotation Xrotation Yrotation
		JOINT Chest
		{
			OFFSET -0.0000 25.0068 -0.0000
			CHANNELS 3 Zrotation Xrotation Yrotation
			JOINT Neck
			{
				OFFSET -0.0000 25.0068 0.0000
				CHANNELS 3 Zrotation Xrotation Yrotation
				JOINT Head
				{
					OFFSET -0.0000 10.7556 0.0000
					CHANNELS 3 Zrotation Xrotation Yrotation
					End Site
					{
						OFFSET -0.0000 16.6222 0.0000
					}
				}
			}
			JOINT LeftCollar
			{
				OFFSET -0.0000 25.0068 0.0000
				CHANNELS 3 Zrotation Xrotation Yrotation
				JOINT LeftShoulder
				{
					OFFSET 19.5556 -0.0000 0.0000
					CHANNELS 3 Zrotation Xrotation Yrotation
					JOINT LeftElbow
					{
						OFFSET 27.1828 0.0000 0.0000
						CHANNELS 3 Zrotation Xrotation Yrotation
						JOINT LeftWrist
						{
							OFFSET 23.3157 0.0000 0.0000
							CHANNELS 3 Zrotation Xrotation Yrotation
							End Site
							{
								OFFSET 0.0000 -14.6667 0.0000
							}
						}
					}
				}
			}
			JOINT RightCollar
			{
				OFFSET -0.0000 25.0068 0.0000
				CHANNELS 3 Zrotation Xrotation Yrotation
				JOINT RightShoulder
				{
					OFFSET -19.5556 0.0000 0.0000
					CHANNELS 3 Zrotation Xrotation Yrotation
					JOINT RightElbow
					{
						OFFSET -27.1828 0.0000 0.0000
						CHANNELS 3 Zrotation Xrotation Yrotation
						JOINT RightWrist
						{
							OFFSET -23.3157 0.0000 0.0000
							CHANNELS 3 Zrotation Xrotation Yrotation
							End Site
							{
								OFFSET -0.0000 -14.6667 0.0000
							}
						}
					}
				}
			}
		}
	}
	JOINT LeftHip
	{
		OFFSET 11.7333 0.0000 0.0000
		CHANNELS 3 Zrotation Xrotation Yrotation
		JOINT LeftKnee
		{
			OFFSET -0.0000 -40.8688 0.0000
			CHANNELS 3 Zrotation Xrotation Yrotation
			JOINT LeftAnkle
			{
				OFFSET -0.0000 -44.4337 0.0000
				CHANNELS 3 Zrotation Xrotation Yrotation
				End Site
				{
					OFFSET -0.0000 -4.8889 16.6222
				}
			}
		}
	}
	JOINT RightHip
	{
		OFFSET -11.7333 0.0000 0.0000
		CHANNELS 3 Zrotation Xrotation Yrotation
		JOINT RightKnee
		{
			OFFSET -0.0000 -40.8688 0.0000
			CHANNELS 3 Zrotation Xrotation Yrotation
			JOINT RightAnkle
			{
				OFFSET -0.0000 -44.4337 0.0000
				CHANNELS 3 Zrotation Xrotation Yrotation
				End Site
				{
					OFFSET -0.0000 -4.8889 16.6222
				}
			}
		}
	}
}
MOTION
Frames: 24
Frame Time: 0.010000
-3.9835 88.7991 189.7490 2.6375 0.2888 175.5176 1.2997 359.6153 358.6596 358.9599 12.4034 358.7683 2.4381 351.6423 0.7778 0.9936 17.1049 0.4432 338.9352 358.5497 7.7403 301.2445 31.6557 353.2341 16.4462 354.4737 323.1187 81.6430 1.6656 341.1527 22.3199 359.3509 356.6577 58.8729 43.1899 10.1855 338.0568 354.3560 28.5242 278.7873 353.5311 19.2494 1.2572 357.1608 356.1960 358.5977 11.4829 359.1682 0.5358 352.8244 21.8818 2.0408 351.3494 359.5484 359.1755 19.0875 9.0300 357.3747 346.1130 338.4077 
-4.0069 88.8013 189.7471 2.6403 0.2666 175.5504 1.2752 359.6209 358.6590 358.9808 12.4140 358.7653 2.4757 351.6331 0.7218 0.9225 17.1022 0.4048 338.9371 358.5549 7.7658 301.2733 31.8580 353.1816 16.5243 354.4488 323.1696 81.6447 1.6153 341.2673 22.2942 359.3280 356.6304 58.8713 43.2334 10.2077 337.9711 354.3376 28.5259 278.8730 353.4005 19.1750 1.2518 357.1224 356.1715 358.5857 11.4987 359.1825 0.5221 352.8556 21.8612 2.0211 351.3358 359.5364 359.1868 19.0779 9.0067 357.3534 346.1326 338.4160 
-4.0349 88.8023 189.7365 2.6352 0.2699 175.5689 1.2467 359.6381 358.6621 358.9977 12.4432 358.7693 2.4765 351.6132 0.6941 0.9241 17.1017 0.3725 338.9318 358.5490 7.8086 301.3018 32.0465 353.1140 16.6245 354.4136 323.2175 81.7016 1.5618 341.4482 22.2885 359.3416 356.6258 58.8030 43.1844 10.2529 337.9342 354.3630 28.2250 278.9104 352.4514 18.5275 1.2285 357.1139 356.1768 358.5821 11.5256 359.1652 0.5343 352.8087 21.8557 1.9943 351.3541 359.5418 359.1893 19.0617 8.9981 357.3864 346.0853 338.4017 
-4.0634 88.8045 189.7282 2.6352 0.2645 175.5806 1.2162 359.6571 358.6758 359.0240 12.4520 358.7798 2.4869 351.6165 0.6697 0.9161 17.0859 0.3451 338.9282 358.5692 7.7718 301.2442 31.8599 353.1461 16.5093 354.4663 323.1305 81.7110 1.6243 341.3161 22.2790 359.3234 356.6233 58.7762 43.1598 10.2563 337.9891 354.4032 28.3211 278.8080 352.5533 18.8642 1.2136 357.1038 356.1614 358.5727 11.5395 359.1622 0.6975 352.8525 21.8892 1.9764 351.3704 359.5814 359.1982 19.0349 8.9321 357.7214 345.8966 338.3108 
-4.0955 88.8068 189.7224 2.6307 0.2475 175.5918 1.1976 359.6690 358.6766 359.0365 12.4642 358.7793 2.4677 351.6145 0.6350 0.9247 17.0653 0.3160 338.9527 358.5504 7.7483 301.1586 31.7815 353.1883 16.5224 354.4735 323.0449 81.6782 1.6348 341.2487 22.2630 359.3323 356.6088 58.7269 43.1444 10.2983 338.4226 354.5167 28.6605 278.1830 353.4292 20.5748 1.1923 357.0759 356.1760 358.5677 11.5651 359.1440 0.5980 352.7930 21.8666 1.9476 351.3637 359.6233 359.2214 19.0223 8.8616 357.4598 346.0743 338.4732 
-4.1286 88.8088 189.7119 2.6322 0.2517 175.6108 1.1753 359.6973 358.6825 359.0524 12.4887 358.7833 2.4671 351.5825 0.6166 0.9104 17.0737 0.2729 338.9691 358.5540 7.7249 301.0950 31.6693 353.2285 16.4249 354.5025 322.9824 81.7385 1.6277 341.1246 22.2459 359.3283 356.5964 58.6759 43.1507 10.3457 338.4333 354.4557 28.7195 278.2771 353.4675 20.6378 1.1728 357.0678 356.2304 358.5719 11.5936 359.0820 0.6385 352.7837 21.8663 1.9237 351.3867 359.6491 359.2341 19.0024 8.8168 357.5036 346.0557 338.4990 
-4.1660 88.8102 189.7009 2.6321 0.2491 175.6210 1.1676 359.7288 358.6893 359.0364 12.4862 358.7933 2.4774 351.5908 0.5811 0.9067 17.0597 0.2456 338.9747 358.5607 7.7529 301.1069 31.8140 353.2044 16.5295 354.4306 322.8950 81.6648 1.8042 341.4218 22.2488 359.3427 356.6033 58.6547 43.1353 10.3474 338.4605 354.4304 28.7602 278.2939 353.4735 20.7058 1.1510 357.0655 356.2255 358.5665 11.6017 359.0618 0.6415 352.7617 21.8966 1.8959 351.3975 359.6761 359.2468 18.9872 8.7703 357.4479 346.0623 338.4871 
-4.2073 88.8123 189.6983 2.6296 0.2122 175.6360 1.1492 359.7338 358.7038 359.0360 12.4849 358.8070 2.4640 351.5900 0.5171 0.9376 17.0541 0.2255 338.9842 358.5630 7.7191 301.0568 31.7038 353.2406 16.5899 354.3568 322.5471 81.5591 2.3526 341.9569 22.2396 359.3296 356.5982 58.6445 43.1433 10.3474 338.4126 354.3834 28.8118 278.3658 353.4660 20.7102 1.1245 357.0174 356.2208 358.5646 11.6163 359.0619 0.5510 352.7168 21.9128 1.8652 351.3623 359.6893 359.2548 18.9879 8.7374 357.4621 346.0617 338.5032 
-4.2508 88.8136 189.6883 2.6339 0.1942 175.6570 1.1456 359.7534 358.7052 359.0304 12.4816 358.8102 2.4279 351.6015 0.4825 0.9893 17.0426 0.1753 338.9847 358.5611 7.7168 301.0318 31.7207 353.2471 16.5888 354.3532 322.5294 81.5792 2.3361 341.9589 22.2325 359.3294 356.5973 58.6277 43.1315 10.3355 338.4038 354.3898 28.8618 278.4222 353.4592 20.6821 1.1072 357.0017 356.1754 358.5450 11.6148 359.1063 0.5126 352.7178 21.8669 1.8365 351.3596 359.7186 359.2654 18.9867 8.6847 357.5579 346.0405 338.5439 
-4.3009 88.8138 189.6802 2.6342 0.1728 175.6835 1.1538 359.7774 358.7042 359.0017 12.4662 358.8122 2.4064 351.6178 0.4320 1.0110 17.0323 0.1714 338.9918 358.5581 7.7384 301.0086 31.7980 353.2353 16.6227 354.3210 322.5407 81.6321 2.3050 341.9925 22.2266 359.3242 356.6083 58.6165 43.1483 10.3224 338.3677 354.3799 28.8674 278.5636 353.3198 20.6000 1.0776 356.9726 356.1558 358.5374 11.6310 359.0850 0.6135 352.7345 21.8814 1.7924 351.3497 359.7510 359.2875 19.0038 8.6368 357.6006 346.0238 338.5838 
-4.3511 88.8139 189.6691 2.6395 0.1554 175.7070 1.1652 359.7903 358.7054 358.9677 12.4753 358.8167 2.4044 351.6260 0.4249 1.0272 17.0247 0.1255 339.0052 358.5588 7.7288 300.9618 31.7092 353.2570 16.5519 354.3493 322.4948 81.7149 2.3102 341.8839 22.2296 359.3339 356.6233 58.5857 43.1304 10.3071 338.3642 354.3609 28.9460 278.6733 353.3282 20.5817 1.0515 356.9471 356.1472 358.5336 11.6520 359.0698 0.6845 352.7292 21.9068 1.7586 351.3459 359.7588 359.3012 18.9961 8.6728 357.6019 346.0226 338.5294 
-4.4032 88.8152 189.6605 2.6506 0.1361 175.7099 1.1517 359.8009 358.7248 358.9760 12.4974 358.8359 2.4113 351.6353 0.3997 0.9901 17.0086 0.0883 338.9982 358.5579 7.7526 300.9596 31.7321 353.2205 16.5450 354.3517 322.4840 81.7313 2.2894 341.8650 22.2055 359.3379 356.6318 58.5281 43.2278 10.3708 338.2808 354.3389 28.9142 278.7263 353.3103 20.4579 1.0322 356.9317 356.1437 358.5272 11.6571 359.0759 0.6786 352.7174 21.9004 1.7337 351.3328 359.8000 359.3145 18.9924 8.6513 357.6441 346.0051 338.5352 
-4.4593 88.8158 189.6494 2.6689 0.1270 175.7128 1.1618 359.8461 358.7347 358.9570 12.4696 358.8476 2.4227 351.6674 0.3613 0.9520 17.0155 0.0500 338.9870 358.5353 7.8278 301.0226 32.0859 353.1510 16.7313 354.2616 322.5793 81.6866 2.2114 342.0765 22.2028 359.3449 356.6326 58.4825 43.2962 10.4024 338.2705 354.3347 28.9271 278.4603 353.6532 20.3973 1.0169 356.9273 356.1555 358.5248 11.6597 359.0452 0.6346 352.6749 21.9264 1.7111 351.3349 359.8381 359.3324 18.9856 8.5943 357.6402 345.9940 338.5661 
-4.5182 88.8174 189.6353 2.6768 0.1179 175.7143 1.1792 359.8932 358.7326 358.9171 12.4376 358.8503 2.4081 351.6977 0.3336 0.9337 17.0157 0.0339 338.9791 358.5343 7.9167 301.0785 32.3752 353.0746 16.6872 354.3278 322.7505 82.5518 1.9522 342.5444 22.2135 359.3347 356.6530 58.4648 43.2724 10.3544 338.2805 354.3031 29.0644 278.2335 353.9975 20.4539 0.9930 356.9261 356.1251 358.5034 11.6603 359.0591 0.6197 352.6539 21.9356 1.6779 351.3420 359.8722 359.3455 18.9706 8.5515 357.7201 345.9661 338.5948 
-4.5814 88.8182 189.6175 2.6818 0.1110 175.7085 1.1844 359.9219 358.7369 358.8805 12.4390 358.8593 2.4059 351.7036 0.3357 0.9368 17.0387 0.0378 338.9854 358.5316 8.0059 301.0901 32.5074 352.9790 16.6597 354.3743 322.8670 83.0562 1.7959 342.7655 22.2115 359.3435 356.6789 58.4407 43.2291 10.3389 338.2687 354.2909 29.0908 278.6540 353.6349 20.4509 0.9623 356.9379 356.0942 358.4839 11.6467 359.0826 0.6357 352.6501 21.9499 1.6376 351.3590 359.9417 359.3704 18.9424 8.4992 357.7521 345.9648 338.6040 
-4.6460 88.8194 189.6013 2.6889 0.0949 175.6956 1.1863 359.9500 358.7434 358.8495 12.4280 358.8694 2.3910 351.7291 0.3419 0.9769 17.0277 0.0344 338.9887 358.5095 8.0580 301.0859 32.5728 352.9593 16.6950 354.3728 322.8761 83.0741 1.7714 342.8081 22.2085 359.3702 356.7042 58.4147 43.1993 10.3391 338.2474 354.2756 29.1168 278.9286 353.4322 20.4080 0.9324 356.9324 356.0880 358.4721 11.6453 359.0961 0.6766 352.6398 21.9588 1.6054 351.3614 0.0095 359.3831 18.9200 8.4597 357.7281 345.9687 338.5996 
-4.7135 88.8212 189.5862 2.6994 0.0674 175.6928 1.1880 359.9558 358.7540 358.8289 12.4511 358.8820 2.3928 351.7136 0.3393 0.9813 17.0335 0.0272 338.9917 358.5110 8.0681 301.0777 32.5640 352.9592 16.6361 354.3936 322.8800 83.1754 1.7147 342.8143 22.2059 359.3587 356.6897 58.3490 43.2163 10.3911 338.1759 354.2585 29.1840 279.0047 353.4502 20.3363 0.9045 356.9046 356.0974 358.4630 11.6660 359.0824 0.7419 352.5990 21.9660 1.5707 351.3623 0.0917 359.4094 18.8787 8.3780 357.7748 345.9767 338.6242 
-4.7845 88.8236 189.5660 2.7084 0.0436 175.6714 1.1663 359.9590 358.7803 358.8272 12.4747 358.9097 2.4308 351.7143 0.3187 0.8981 17.0406 0.0140 339.0020 358.5272 7.9742 300.9708 32.1720 353.0810 16.4141 354.4863 322.7440 83.2870 1.7182 342.5916 22.1871 359.3506 356.6910 58.3421 43.2157 10.3813 338.1579 354.2472 29.2471 279.0115 353.4411 20.3749 0.8721 356.8949 356.1058 358.4539 11.6700 359.0765 0.8500 352.6193 21.9988 1.5378 351.3667 0.1774 359.4234 18.8425 8.3197 357.8053 345.9736 338.6379 
-4.8578 88.8251 189.5508 2.7274 0.0086 175.6536 1.1669 359.9860 358.7935 358.8157 12.4378 358.9246 2.4359 351.7558 0.2950 0.8555 17.0451 359.9978 338.9962 358.5295 7.9546 300.9484 32.1914 353.1250 16.4033 354.4469 322.7242 83.3601 1.7136 342.6403 22.1771 359.3441 356.6935 58.3893 43.2058 10.3160 338.0918 354.1872 29.3065 279.1061 353.4670 20.3682 0.8525 356.8709 356.0866 358.4293 11.6703 359.1133 0.8574 352.5894 21.9949 1.5171 351.3573 0.2203 359.4139 18.8127 8.3007 357.8587 345.9521 338.6817 
-4.9369 88.8269 189.5360 2.7441 359.9702 175.6430 1.1839 0.0099 358.7914 358.7731 12.4193 358.9251 2.4540 351.7131 0.2986 0.7954 17.1538 0.0102 339.0032 358.5288 7.9852 300.9470 32.1917 353.1227 16.4526 354.4239 322.7002 83.0172 1.7259 342.4965 22.1802 359.3412 356.6572 58.2914 43.3684 10.4479 338.0077 354.1742 29.1509 279.2354 353.3425 20.2377 0.8195 356.8342 356.0730 358.4213 11.6904 359.1160 0.8464 352.5414 22.0209 1.4844 351.3475 0.2700 359.4277 18.7650 8.2513 357.8810 345.9771 338.7023 
-5.0214 88.8268 189.5240 2.7561 359.9296 175.6176 1.1799 0.0107 358.7952 358.7582 12.4448 358.9313 2.4293 351.6971 0.3045 0.7723 17.1794 0.0268 338.9976 358.5101 8.0835 301.0015 32.5262 353.0143 16.5815 354.3722 322.8524 83.3056 1.6295 342.8166 22.1567 359.3695 356.6806 58.2332 43.3643 10.4959 338.0429 354.1931 29.1760 279.0995 353.2446 20.0354 0.7786 356.7910 356.0714 358.4180 11.7158 359.1064 0.8626 352.5214 22.0307 1.4469 351.3248 0.3182 359.4349 18.7319 8.2124 357.9260 345.9781 338.7324 
-5.1128 88.8270 189.5139 2.7651 359.8798 175.5684 1.1886 0.0332 358.8156 358.7099 12.4190 358.9581 2.3972 351.7232 0.2887 0.7866 17.1627 0.0050 339.0557 358.5445 7.9180 300.8993 32.4616 353.2820 16.7194 354.3144 322.7176 82.9416 1.7014 342.8255 22.1461 359.3432 356.7005 58.2129 43.3473 10.4724 338.2494 354.2679 29.2831 278.6267 353.1870 20.9672 0.7364 356.7455 356.0496 358.3939 11.7314 359.1456 0.8775 352.4982 22.0774 1.4037 351.2782 0.3564 359.4356 18.7193 8.1987 357.9575 345.9776 338.7701 
-5.2077 88.8259 189.5004 2.7849 359.8351 175.5213 1.2051 0.0697 358.8184 358.6879 12.3817 358.9623 2.3844 351.7485 0.2989 0.7841 17.1439 0.0243 339.0775 358.5675 7.6979 300.6634 31.5134 353.5770 16.4247 354.4375 322.2955 82.1562 2.0339 341.8178 22.1387 359.3612 356.6831 58.1377 43.3753 10.5191 338.3050 354.2712 29.2798 278.6423 353.1545 21.0501 0.7005 356.7054 356.0317 358.3725 11.7528 359.1557 1.0781 352.4954 22.1712 1.3675 351.2452 0.3632 359.4267 18.6969 8.2531 357.9994 345.9785 338.7676 
-5.2999 88.8259 189.4823 2.8080 359.8084 175.4584 1.2243 0.1144 358.8265 358.6294 12.3604 358.9770 2.3983 351.7213 0.3173 0.7456 17.2217 0.0547 339.0770 358.5529 7.8148 300.7458 31.9194 353.4849 16.3793 354.4084 322.5017 83.4252 1.6901 342.5104 22.1395 359.3633 356.7027 58.1192 43.3742 10.5304 338.2627 354.2440 29.3395 278.7024 353.1118 21.0222 0.6652 356.6905 356.0656 358.3613 11.5952 359.1652 1.1819 352.5817 22.2779 1.3426 351.2366 0.4279 359.4217 18.6613 8.2070 358.0567 345.9754 338.8192 
